<svg xmlns="http://www.w3.org/2000/svg" version="1.1" xmlns:xlink="http://www.w3.org/1999/xlink" xmlns:svgjs="http://svgjs.com/svgjs" width="32" height="32"><svg width="32" height="32" viewBox="0 0 32 32" fill="none" xmlns="http://www.w3.org/2000/svg">
<path d="M3 25.2727V2H12.3182C14.0303 2 15.4583 2.25379 16.6023 2.76136C17.7462 3.26894 18.6061 3.97349 19.1818 4.875C19.7576 5.76894 20.0455 6.79924 20.0455 7.96591C20.0455 8.875 19.8636 9.67424 19.5 10.3636C19.1364 11.0455 18.6364 11.6061 18 12.0455C17.3712 12.4773 16.6515 12.7841 15.8409 12.9659V13.1932C16.7273 13.2311 17.5568 13.4811 18.3295 13.9432C19.1098 14.4053 19.7424 15.053 20.2273 15.8864C20.7121 16.7121 20.9545 17.697 20.9545 18.8409C20.9545 20.0758 20.6477 21.178 20.0341 22.1477C19.428 23.1098 18.5303 23.8712 17.3409 24.4318C16.1515 24.9924 14.6856 25.2727 12.9432 25.2727H3ZM7.92045 21.25H11.9318C13.303 21.25 14.303 20.9886 14.9318 20.4659C15.5606 19.9356 15.875 19.2311 15.875 18.3523C15.875 17.7083 15.7197 17.1402 15.4091 16.6477C15.0985 16.1553 14.6553 15.7689 14.0795 15.4886C13.5114 15.2083 12.8333 15.0682 12.0455 15.0682H7.92045V21.25ZM7.92045 11.7386H11.5682C12.2424 11.7386 12.8409 11.6212 13.3636 11.3864C13.8939 11.1439 14.3106 10.803 14.6136 10.3636C14.9242 9.92424 15.0795 9.39773 15.0795 8.78409C15.0795 7.94318 14.7803 7.26515 14.1818 6.75C13.5909 6.23485 12.75 5.97727 11.6591 5.97727H7.92045V11.7386Z" fill="#3B3B3B"></path>
<path d="M16 29.2727V6H20.9205V25.2159H30.8977V29.2727H16Z" fill="black"></path>
</svg><style>@media (prefers-color-scheme: light) { :root { filter: contrast(1) brightness(0.6); } }
</style></svg>